<svg xmlns="http://www.w3.org/2000/svg" baseProfile="full" version="1.1" width="1215px" height="705px" style="fill: none; width: 1215px; height: 705px;"><path d="M15,690 L15,690 L15,360 L1200,360 L1200,690 L15,690 M360,570 L360,570 L390,540 L420,570 L390,600 L360,570 M390,600 M120,540 L120,540 L120,495 L150,540 L120,540 M1200,690 L1200,690 L1200,360 L15,360 L15,690 L1200,690 M855,570 L855,570 L825,540 L795,570 L825,600 L855,570 M825,600 M1095,540 L1095,540 L1095,495 L1065,540 L1095,540 " style="stroke-width: 6; stroke-linecap: round; stroke-linejoin: round; stroke: rgb(84, 83, 52); fill: none;"/><path d="M60,660 Q60,420 180,420 Q180,660 60,660 M180,660 Q180,420 60,420 Q60,660 180,660 M60,660 Q60,420 180,420 Q180,660 60,660 M180,660 Q180,420 60,420 Q60,660 180,660 M480,420 A120,60 0 0,0 600,480 A120,60 0 0,0 480,540 A120,60 0 0,0 600,600 A120,60 0 0,0 480,660 L600,660 A120,60 0 0,0 480,600 A120,60 0 0,0 600,540 A120,60 0 0,0 480,480 A120,60 0 0,0 600,420 L480,420 M270,420 A30,30 0 0,0 240,450 A30,30 0 0,0 270,480 A30,30 0 0,0 300,450 A30,30 0 0,0 270,420 M270,480 A30,30 0 0,1 240,510 A30,30 0 0,1 270,540 A30,30 0 0,1 300,510 A30,30 0 0,1 270,480 M270,540 Q240,570 270,600 Q300,570 270,540 M240,600 Q300,600 300,660 Q240,660 240,600 M240,660 Q240,600 300,600 Q300,660 240,660 M390,420 L390,420 L360,450 L390,480 L420,450 L390,420 M390,480 A30,30 0 0,0 360,510 A30,30 0 0,0 390,540 A30,30 0 0,0 420,510 A30,30 0 0,0 390,480 M390,540 L390,540 L360,570 L390,600 L420,570 L390,540 M390,600 A30,30 0 0,0 360,630 A30,30 0 0,0 390,660 A30,30 0 0,0 420,630 A30,30 0 0,0 390,600 M120,465 A15,15 0 0,0 105,480 A15,15 0 0,0 120,495 A15,15 0 0,0 135,480 A15,15 0 0,0 120,465 M1155,660 Q1155,420 1035,420 Q1035,660 1155,660 M1035,660 Q1035,420 1155,420 Q1155,660 1035,660 M1155,660 Q1155,420 1035,420 Q1035,660 1155,660 M1035,660 Q1035,420 1155,420 Q1155,660 1035,660 M735,420 A120,60 0 0,1 615,480 A120,60 0 0,1 735,540 A120,60 0 0,1 615,600 A120,60 0 0,1 735,660 L615,660 A120,60 0 0,1 735,600 A120,60 0 0,1 615,540 A120,60 0 0,1 735,480 A120,60 0 0,1 615,420 L735,420 M945,420 A30,30 0 0,1 975,450 A30,30 0 0,1 945,480 A30,30 0 0,1 915,450 A30,30 0 0,1 945,420 M945,480 A30,30 0 0,0 975,510 A30,30 0 0,0 945,540 A30,30 0 0,0 915,510 A30,30 0 0,0 945,480 M945,540 Q975,570 945,600 Q915,570 945,540 M975,600 Q915,600 915,660 Q975,660 975,600 M975,660 Q975,600 915,600 Q915,660 975,660 M825,420 L825,420 L855,450 L825,480 L795,450 L825,420 M825,480 A30,30 0 0,1 855,510 A30,30 0 0,1 825,540 A30,30 0 0,1 795,510 A30,30 0 0,1 825,480 M825,540 L825,540 L855,570 L825,600 L795,570 L825,540 M825,600 A30,30 0 0,1 855,630 A30,30 0 0,1 825,660 A30,30 0 0,1 795,630 A30,30 0 0,1 825,600 M1095,465 A15,15 0 0,1 1110,480 A15,15 0 0,1 1095,495 A15,15 0 0,1 1080,480 A15,15 0 0,1 1095,465 " style="stroke-width: 2; stroke-linecap: square; stroke-linejoin: round; stroke: rgb(226, 179, 169); fill: none;"/><path d="M30,375 L30,375 L1185,375 L1185,405 L30,405 L30,375 M270,480 L270,480 L300,450 L270,420 L240,450 L300,450 M270,480 L270,480 L270,540 M270,600 A30,30 0 0,1 300,510 M270,600 L270,630 A30,30 0 0,0 300,660 M420,450 L420,450 L360,450 L390,420 L390,450 L375,465 L390,480 L390,480 L390,510 L360,510 L390,480 L390,540 L420,510 L390,510 L390,570 M390,600 A30,30 0 0,1 360,630 A30,30 0 0,1 390,660 A30,30 0 0,1 420,630 A30,30 0 0,1 390,600 M540,420 L540,420 L510,450 L570,450 L540,420 L540,420 L540,450 L540,480 L540,495 L570,525 L510,525 L540,495 M510,540 L510,540 L570,540 L540,570 L510,540 M540,570 L540,570 L540,600 M540,660 L540,660 L510,630 L570,630 L540,660 L540,660 L540,630 L540,630 L540,600 M615,420 A120,60 0 0,0 735,480 L735,480 A120,60 0 0,0 615,540 M615,480 A120,60 0 0,0 735,420 M615,480 A120,60 0 0,1 735,540 M675,585 A60,45 0 0,1 735,540 M675,585 A60,45 0 0,0 615,540 M675,495 L675,495 L645,540 L705,540 L675,495 M675,585 L675,600 L675,615 A60,45 0 0,1 615,660 M675,615 A60,45 0 0,0 735,660 M810,435 L810,435 L840,435 L840,465 L810,465 L810,435 M825,435 A15,15 0 0,0 810,450 A15,15 0 0,0 825,465 A15,15 0 0,0 840,450 A15,15 0 0,0 825,435 M810,450 L810,450 L840,450 M825,435 L825,435 L825,465 M810,495 A30,30 0 0,0 840,525 M840,495 A30,30 0 0,1 810,525 M825,540 A30,30 0 0,0 855,510 A30,30 0 0,0 825,480 A30,30 0 0,0 795,510 A30,30 0 0,0 825,540 M825,570 L825,570 L825,540 L795,570 L825,570 L825,570 L825,540 L855,570 L825,570 M795,570 L795,570 L825,600 L825,570 L795,570 M825,600 L825,600 L825,570 L855,570 L825,600 L825,600 L795,630 L825,660 L855,630 L825,600 M825,615 L825,615 L810,630 L825,645 L840,630 L825,615 M930,435 L930,435 L960,435 L960,465 L930,465 L930,435 L930,435 L960,465 M960,435 L960,435 L945,450 L975,450 L960,435 M975,510 A30,30 0 0,1 945,480 A30,30 0 0,1 975,510 M945,480 L945,510 L915,510 M945,510 L945,510 L945,540 M945,570 L960,570 A15,30 0 0,0 945,600 A15,30 0 0,0 930,570 M945,600 L945,600 L930,630 L945,645 L960,630 L945,600 M105,465 L105,465 L135,465 L135,495 L105,495 L105,465 M120,495 L120,495 L120,495 L150,540 L90,540 L120,495 L120,495 L120,540 L120,495 L120,495 M120,540 L120,585 A30,30 0 0,0 150,555 L90,555 M1080,465 L1080,465 L1110,465 L1110,495 L1080,495 L1080,465 M1095,495 L1095,495 L1095,495 L1125,540 L1065,540 L1095,495 L1095,495 L1095,540 L1095,495 L1095,495 M1095,540 A30,30 0 0,1 1065,570 L1125,570 A30,30 0 0,1 1095,600 M1185,375 L1185,375 L30,375 L30,405 L1185,405 L1185,375 M945,480 L945,480 L915,450 L945,420 L975,450 L915,450 M945,480 L945,480 L945,540 M945,600 A30,30 0 0,0 915,510 M945,600 L945,630 A30,30 0 0,1 915,660 M795,450 L795,450 L855,450 L825,420 L825,450 L840,465 L825,480 L825,480 L825,510 L855,510 L825,480 L825,540 L795,510 L825,510 L825,570 M825,600 A30,30 0 0,0 855,630 A30,30 0 0,0 825,660 A30,30 0 0,0 795,630 A30,30 0 0,0 825,600 M675,420 L675,420 L705,450 L645,450 L675,420 L675,420 L675,450 L675,480 L675,495 L645,525 L705,525 L675,495 M705,540 L705,540 L645,540 L675,570 L705,540 M675,570 L675,570 L675,600 M675,660 L675,660 L705,630 L645,630 L675,660 L675,660 L675,630 L675,630 L675,600 M600,420 A120,60 0 0,1 480,480 L480,480 A120,60 0 0,1 600,540 M600,480 A120,60 0 0,1 480,420 M600,480 A120,60 0 0,0 480,540 M540,585 A60,45 0 0,0 480,540 M540,585 A60,45 0 0,1 600,540 M540,495 L540,495 L570,540 L510,540 L540,495 M540,585 L540,600 L540,615 A60,45 0 0,0 600,660 M540,615 A60,45 0 0,1 480,660 M405,435 L405,435 L375,435 L375,465 L405,465 L405,435 M390,435 A15,15 0 0,1 405,450 A15,15 0 0,1 390,465 A15,15 0 0,1 375,450 A15,15 0 0,1 390,435 M405,450 L405,450 L375,450 M390,435 L390,435 L390,465 M405,495 A30,30 0 0,1 375,525 M375,495 A30,30 0 0,0 405,525 M390,540 A30,30 0 0,1 360,510 A30,30 0 0,1 390,480 A30,30 0 0,1 420,510 A30,30 0 0,1 390,540 M390,570 L390,570 L390,540 L420,570 L390,570 L390,570 L390,540 L360,570 L390,570 M420,570 L420,570 L390,600 L390,570 L420,570 M390,600 L390,600 L390,570 L360,570 L390,600 L390,600 L420,630 L390,660 L360,630 L390,600 M390,615 L390,615 L405,630 L390,645 L375,630 L390,615 M285,435 L285,435 L255,435 L255,465 L285,465 L285,435 L285,435 L255,465 M255,435 L255,435 L270,450 L240,450 L255,435 M240,510 A30,30 0 0,0 270,480 A30,30 0 0,0 240,510 M270,480 L270,510 L300,510 M270,510 L270,510 L270,540 M270,570 L255,570 A15,30 0 0,1 270,600 A15,30 0 0,1 285,570 M270,600 L270,600 L285,630 L270,645 L255,630 L270,600 M1110,465 L1110,465 L1080,465 L1080,495 L1110,495 L1110,465 M1095,495 L1095,495 L1095,495 L1065,540 L1125,540 L1095,495 L1095,495 L1095,540 L1095,495 L1095,495 M1095,540 L1095,585 A30,30 0 0,1 1065,555 L1125,555 M135,465 L135,465 L105,465 L105,495 L135,495 L135,465 M120,495 L120,495 L120,495 L90,540 L150,540 L120,495 L120,495 L120,540 L120,495 L120,495 M120,540 A30,30 0 0,0 150,570 L90,570 A30,30 0 0,0 120,600 " style="stroke-width: 2; stroke-linecap: round; stroke-linejoin: round; stroke: rgb(111, 121, 131); fill: none;"/></svg>